<svg width="18" height="18" viewBox="0 0 18 18" fill="none" xmlns="http://www.w3.org/2000/svg">
<path d="M6.98718 11.1416H2.75781V15.2918H6.98718V11.1416ZM5.8319 14.1581H3.91309V12.2753H5.8319V14.1581Z" fill="#464E5F"/>
<path d="M10.9102 7.07594H15.1396V2.92578H10.9102V7.07594ZM12.0655 4.05942H13.9843V5.9423H12.0655L12.0655 4.05942Z" fill="#464E5F"/>
<path d="M6.98718 2.92578H2.75781V7.07594H6.98718V2.92578ZM5.8319 5.9423H3.91309V4.05942H5.8319V5.9423Z" fill="#464E5F"/>
<path d="M8.77994 2.92578H7.75195V3.9345H8.77994V2.92578Z" fill="#464E5F"/>
<path d="M3.78189 7.72656H2.75391V8.73528H3.78189V7.72656Z" fill="#464E5F"/>
<path d="M8.57388 10.1328H7.5459V11.1415H8.57388V10.1328Z" fill="#464E5F"/>
<path d="M10.9102 15.2917H15.1396V11.1415H11.9381V10.1328H10.9102V15.2917ZM12.0655 12.2752H13.9843V14.1581H12.0655L12.0655 12.2752Z" fill="#464E5F"/>
<path d="M8.7804 8.23036V5.876H9.72695C9.79445 5.876 9.86129 5.86296 9.92365 5.83761C9.98601 5.81227 10.0427 5.77512 10.0904 5.72829C10.1381 5.68145 10.176 5.62586 10.2018 5.56466C10.2277 5.50347 10.241 5.43789 10.241 5.37166V3.93457H9.21298V4.86729H8.26641C8.19891 4.86728 8.13207 4.88033 8.06971 4.90568C8.00735 4.93102 7.95069 4.96817 7.90296 5.01501C7.85523 5.06184 7.81737 5.11745 7.79154 5.17864C7.7657 5.23984 7.75241 5.30542 7.75241 5.37166V7.72599H6.03809V8.7347H8.26641C8.33391 8.7347 8.40075 8.72165 8.46311 8.69631C8.52546 8.67097 8.58212 8.63382 8.62985 8.58699C8.67758 8.54015 8.71544 8.48455 8.74127 8.42336C8.7671 8.36217 8.7804 8.29659 8.7804 8.23036Z" fill="#464E5F"/>
<path d="M13.0248 10.4332H15.1395V9.42445H13.5388V8.23094C13.5388 8.1647 13.5255 8.09912 13.4997 8.03792C13.4739 7.97673 13.436 7.92113 13.3883 7.87429C13.3406 7.82746 13.2839 7.7903 13.2215 7.76496C13.1592 7.73961 13.0923 7.72656 13.0248 7.72656H10.9102V8.73527H12.5108V9.92881C12.5108 10.0626 12.565 10.1909 12.6614 10.2854C12.7578 10.38 12.8885 10.4332 13.0248 10.4332Z" fill="#464E5F"/>
<path d="M10.2975 13.2167V11.1416H9.26952V12.7123H8.06055V13.721H9.78352C9.91983 13.721 10.0506 13.6679 10.1469 13.5733C10.2433 13.4787 10.2975 13.3504 10.2975 13.2167Z" fill="#464E5F"/>
<path d="M5.83287 9.42383H3.91406V10.4325H5.83287V9.42383Z" fill="#464E5F"/>
<path d="M17.9999 1.64218C17.9994 1.2068 17.823 0.789394 17.5092 0.481531C17.1955 0.173669 16.7701 0.000493882 16.3264 0H14.3213V1.3908H16.3264C16.3943 1.39087 16.4595 1.41738 16.5075 1.46451C16.5555 1.51164 16.5825 1.57554 16.5826 1.64218V3.60245H17.9999V1.64218Z" fill="#464E5F"/>
<path d="M0 1.64218V3.60245H1.41734V1.64218C1.41743 1.57553 1.44445 1.51163 1.49249 1.4645C1.54052 1.41737 1.60565 1.39087 1.67358 1.3908H3.67872V0H1.67358C1.22988 0.000481608 0.804486 0.17365 0.490737 0.481514C0.176989 0.789377 0.000503327 1.20679 0 1.64218Z" fill="#464E5F"/>
<path d="M17.9999 16.3577V14.3975H16.5826V16.3577C16.5825 16.4244 16.5555 16.4883 16.5075 16.5354C16.4595 16.5825 16.3943 16.609 16.3264 16.6091H14.3213V17.9999H16.3264C16.7701 17.9994 17.1955 17.8262 17.5092 17.5184C17.823 17.2105 17.9994 16.7931 17.9999 16.3577Z" fill="#464E5F"/>
<path d="M0 16.3577C0.000503327 16.7931 0.176989 17.2105 0.490737 17.5184C0.804486 17.8263 1.22988 17.9994 1.67358 17.9999H3.67872V16.6091H1.67358C1.60565 16.609 1.54052 16.5825 1.49249 16.5354C1.44445 16.4883 1.41743 16.4244 1.41734 16.3577V14.3975H0V16.3577Z" fill="#464E5F"/>
</svg>
