<svg width="18" height="18" viewBox="0 0 18 18" fill="none" xmlns="http://www.w3.org/2000/svg">
<path d="M12.0006 6.5994C12.332 6.5994 12.6006 6.33077 12.6006 5.99941C12.6006 5.66804 12.332 5.39941 12.0006 5.39941C11.6693 5.39941 11.4006 5.66804 11.4006 5.99941C11.4006 6.33077 11.6693 6.5994 12.0006 6.5994Z" fill="#464E5F"/>
<path d="M7.79991 11.3997C7.79991 12.0627 7.26292 12.5997 6.59993 12.5997C5.93693 12.5997 5.39994 12.0627 5.39994 11.3997C5.39994 10.7367 5.93693 10.1997 6.59993 10.1997C7.26292 10.1997 7.79991 10.7367 7.79991 11.3997ZM13.1999 11.1987V11.6007C13.1999 11.7453 13.0973 11.8689 12.9551 11.8953L12.3623 12.0063C12.1157 12.0525 11.9339 12.2499 11.8841 12.4959C11.8427 12.7005 11.7899 12.9015 11.7257 13.0971C11.6477 13.3347 11.7065 13.5945 11.8961 13.7571L12.3515 14.1477C12.4613 14.2419 12.4883 14.4003 12.4157 14.5257L12.2147 14.8737C12.1427 14.9985 11.9915 15.0549 11.8553 15.0069L11.2835 14.8059C11.0477 14.7231 10.7927 14.8023 10.6259 14.9889C10.4885 15.1431 10.3421 15.2889 10.1879 15.4269C10.0013 15.5937 9.92209 15.8481 10.0049 16.0845L10.2059 16.6563C10.2539 16.7925 10.1981 16.9437 10.0727 17.0157L9.72469 17.2167C9.59989 17.2887 9.44089 17.2617 9.34669 17.1525L8.9561 16.6971C8.7935 16.5075 8.5337 16.4487 8.29611 16.5267C8.10051 16.5909 7.90011 16.6437 7.69491 16.6851C7.44892 16.7349 7.25152 16.9167 7.20532 17.1633L7.09432 17.7561C7.06912 17.8971 6.94552 17.9997 6.80092 17.9997H6.39893C6.25433 17.9997 6.13073 17.8971 6.10433 17.7549L5.99333 17.1621C5.94713 16.9155 5.74974 16.7337 5.50374 16.6839C5.29914 16.6425 5.09814 16.5897 4.90254 16.5255C4.66495 16.4475 4.40515 16.5063 4.24255 16.6959L3.85196 17.1513C3.75776 17.2611 3.59936 17.2881 3.47396 17.2155L3.12596 17.0145C3.00117 16.9425 2.94477 16.7913 2.99277 16.6551L3.19376 16.0833C3.27656 15.8469 3.19736 15.5925 3.01077 15.4257C2.85657 15.2883 2.71077 15.1419 2.57277 14.9877C2.40597 14.8011 2.15158 14.7219 1.91518 14.8047L1.34398 15.0069C1.20779 15.0549 1.05659 14.9991 0.984589 14.8737L0.783591 14.5257C0.711592 14.4009 0.738592 14.2419 0.84779 14.1477L1.30319 13.7571C1.49278 13.5945 1.55158 13.3347 1.47358 13.0971C1.40938 12.9015 1.35658 12.7011 1.31519 12.4959C1.26539 12.2499 1.08359 12.0525 0.836991 12.0063L0.244197 11.8953C0.102599 11.8689 0 11.7453 0 11.6007V11.1987C0 11.0541 0.102599 10.9305 0.244797 10.9041L0.837591 10.7931C1.08419 10.7469 1.26599 10.5495 1.31579 10.3035C1.35718 10.0989 1.40998 9.89795 1.47418 9.70235C1.55218 9.46475 1.49338 9.20496 1.30379 9.04236L0.84839 8.65176C0.738592 8.55756 0.711592 8.39916 0.784191 8.27377L0.985189 7.92577C1.05719 7.80097 1.20839 7.74457 1.34458 7.79257L1.91638 7.99357C2.15278 8.07637 2.40717 7.99717 2.57397 7.81057C2.71137 7.65637 2.85777 7.51057 3.01197 7.37258C3.19856 7.20578 3.27776 6.95138 3.19496 6.71498L2.99277 6.14379C2.94477 6.00759 3.00057 5.85639 3.12596 5.78439L3.47396 5.5834C3.59876 5.5114 3.75776 5.5384 3.85196 5.6476L4.24255 6.10299C4.40515 6.29259 4.66495 6.35139 4.90254 6.27339C5.09814 6.20919 5.29914 6.15639 5.50374 6.11499C5.74974 6.06519 5.94713 5.88339 5.99333 5.6368L6.10433 5.044C6.13073 4.9024 6.25433 4.7998 6.39893 4.7998H6.80092C6.94552 4.7998 7.06912 4.9024 7.09552 5.0446L7.20652 5.6374C7.25272 5.88399 7.45012 6.06579 7.69611 6.11559C7.90071 6.15699 8.10171 6.20979 8.29731 6.27399C8.5349 6.35199 8.7947 6.29319 8.9573 6.10359L9.34789 5.64819C9.44209 5.5384 9.60049 5.5114 9.72589 5.584L10.0739 5.78499C10.1987 5.85699 10.2551 6.00819 10.2071 6.14439L10.0061 6.71558C9.92329 6.95198 10.0025 7.20638 10.1891 7.37318C10.3433 7.51057 10.4891 7.65697 10.6271 7.81117C10.7939 7.99777 11.0483 8.07697 11.2847 7.99417L11.8565 7.79317C11.9927 7.74517 12.1439 7.80097 12.2159 7.92637L12.4169 8.27437C12.4889 8.39916 12.4619 8.55816 12.3527 8.65236L11.8973 9.04296C11.7077 9.20555 11.6489 9.46535 11.7269 9.70295C11.7911 9.89855 11.8439 10.0995 11.8853 10.3041C11.9351 10.5501 12.1169 10.7475 12.3635 10.7937L12.9563 10.9047C13.0973 10.9305 13.1999 11.0541 13.1999 11.1987ZM10.1999 11.3997C10.1999 9.41135 8.5883 7.79977 6.59993 7.79977C4.61155 7.79977 2.99997 9.41135 2.99997 11.3997C2.99997 13.3881 4.61155 14.9997 6.59993 14.9997C8.5883 14.9997 10.1999 13.3881 10.1999 11.3997Z" fill="#464E5F"/>
<path d="M17.7553 5.50434L17.0497 5.37174C16.8667 5.33754 16.7299 5.19234 16.6921 5.00934C16.6567 4.83895 16.6123 4.67155 16.5595 4.50835C16.5019 4.33135 16.5475 4.13875 16.6885 4.01755L17.2321 3.55196C17.3419 3.45776 17.3689 3.29936 17.2963 3.17396L17.0953 2.82597C17.0233 2.70117 16.8721 2.64477 16.7359 2.69277L16.0591 2.93097C15.8839 2.99277 15.6937 2.93577 15.5696 2.79717C15.4538 2.66817 15.3314 2.54577 15.2024 2.42997C15.0638 2.30577 15.0068 2.11558 15.0686 1.94038L15.3068 1.26359C15.3548 1.12739 15.299 0.976189 15.1736 0.90419L14.8256 0.703192C14.7008 0.631193 14.5418 0.658193 14.4476 0.767391L13.9814 1.31099C13.8602 1.45198 13.6676 1.49758 13.4906 1.43998C13.3274 1.38718 13.16 1.34278 12.9896 1.30739C12.8072 1.26959 12.662 1.13279 12.6272 0.949789L12.4946 0.244197C12.4694 0.102599 12.3458 0 12.2012 0H11.7992C11.6546 0 11.531 0.102599 11.5046 0.244797L11.372 0.950389C11.3378 1.13339 11.1926 1.27019 11.0096 1.30799C10.8392 1.34338 10.6718 1.38778 10.5086 1.44058C10.3316 1.49818 10.139 1.45258 10.0178 1.31159L9.55222 0.767991C9.45802 0.658193 9.29962 0.631193 9.17422 0.703792L8.82623 0.90479C8.70143 0.976789 8.64503 1.12799 8.69303 1.26419L8.93123 1.94098C8.99302 2.11618 8.93602 2.30637 8.79743 2.43057C8.66843 2.54637 8.54603 2.66877 8.43023 2.79777C8.30603 2.93637 8.11583 2.99337 7.94064 2.93157L7.26384 2.69337C7.12765 2.64537 6.97645 2.70117 6.90445 2.82657L6.70345 3.17456C6.63145 3.29936 6.65845 3.45836 6.76765 3.55256L6.82645 3.60296C7.53624 3.61496 8.14343 4.12315 8.27483 4.82335L8.31083 5.01414L8.43623 4.86715C8.71163 4.54675 9.09802 4.37155 9.49642 4.35055C10.034 3.53756 10.9532 2.99997 12.0002 2.99997C13.6568 2.99997 15.0002 4.34335 15.0002 5.99993C15.0002 7.04692 14.4626 7.96611 13.6496 8.5025C13.6286 8.9009 13.454 9.2873 13.1336 9.56209L12.986 9.68809L13.1768 9.72409C13.877 9.85549 14.3852 10.4627 14.3972 11.1725L14.4476 11.2313C14.5418 11.3411 14.7002 11.3681 14.8256 11.2955L15.1736 11.0945C15.2984 11.0225 15.3548 10.8713 15.3068 10.7351L15.0686 10.0583C15.0068 9.88309 15.0638 9.69289 15.2024 9.56869C15.3314 9.45289 15.4538 9.33049 15.5696 9.2015C15.6937 9.0629 15.8839 9.0059 16.0591 9.0677L16.7359 9.30589C16.8721 9.35389 17.0233 9.29809 17.0953 9.1727L17.2963 8.8247C17.3683 8.6999 17.3413 8.5409 17.2321 8.4467L16.6885 7.98051C16.5475 7.85931 16.5019 7.66671 16.5595 7.48972C16.6123 7.32652 16.6567 7.15912 16.6921 6.98872C16.7299 6.80632 16.8667 6.66112 17.0497 6.62633L17.7553 6.49373C17.8975 6.46913 18.0001 6.34553 18.0001 6.20093V5.79893C18.0001 5.65434 17.8975 5.53074 17.7553 5.50434Z" fill="#464E5F"/>
</svg>
