<svg width="33" height="36" viewBox="0 0 33 36" fill="none" xmlns="http://www.w3.org/2000/svg">
<path fill-rule="evenodd" clip-rule="evenodd" d="M15.9998 7.66699C9.18833 7.66699 3.6665 13.1888 3.6665 20.0003C3.6665 26.8118 9.18833 32.3337 15.9998 32.3337C22.8113 32.3337 28.3332 26.8118 28.3332 20.0003C28.3332 13.1888 22.8113 7.66699 15.9998 7.66699ZM1.6665 20.0003C1.6665 12.0842 8.08376 5.66699 15.9998 5.66699C23.9159 5.66699 30.3332 12.0842 30.3332 20.0003C30.3332 27.9164 23.9159 34.3337 15.9998 34.3337C8.08376 34.3337 1.6665 27.9164 1.6665 20.0003Z" fill="#111111"/>
<path fill-rule="evenodd" clip-rule="evenodd" d="M29.3332 21H2.6665V19H29.3332V21Z" fill="#111111"/>
<path fill-rule="evenodd" clip-rule="evenodd" d="M15.2924 32.6267C15.2926 32.6265 15.2927 32.6263 15.9999 33.3334C16.707 34.0405 16.7072 34.0403 16.7075 34.04L16.7098 34.0377L16.7147 34.0327L16.731 34.0162C16.7446 34.0023 16.7636 33.9828 16.7878 33.9576C16.8361 33.9073 16.9049 33.8346 16.9911 33.7406C17.1636 33.5527 17.4065 33.2794 17.6962 32.9293C18.2749 32.2301 19.0445 31.2199 19.8145 29.9686C21.3457 27.4803 22.9258 23.9619 22.9258 20.0001C22.9258 16.0382 21.3457 12.5198 19.8145 10.0315C19.0445 8.7803 18.2749 7.77013 17.6962 7.07086C17.4065 6.72079 17.1636 6.44747 16.9911 6.25958C16.9049 6.16561 16.8361 6.09291 16.7878 6.04258C16.7636 6.01742 16.7446 5.99783 16.731 5.98397L16.7147 5.96747L16.7098 5.96247L16.7081 5.96079C16.7078 5.96053 16.707 5.95965 15.9999 6.66676C15.2927 7.37386 15.2926 7.37367 15.2924 7.3735L15.2936 7.37469L15.3027 7.384L15.345 7.42765C15.3835 7.46774 15.4421 7.52959 15.5178 7.61213C15.6694 7.77725 15.8895 8.02476 16.1554 8.34599C16.6878 8.98931 17.3997 9.92359 18.1112 11.0797C19.5429 13.4063 20.9258 16.5545 20.9258 20.0001C20.9258 23.4456 19.5429 26.5939 18.1112 28.9204C17.3997 30.0766 16.6878 31.0109 16.1554 31.6542C15.8895 31.9754 15.6694 32.2229 15.5178 32.3881C15.4421 32.4706 15.3835 32.5324 15.345 32.5725L15.3027 32.6162L15.2936 32.6255L15.2924 32.6267Z" fill="#111111"/>
<path fill-rule="evenodd" clip-rule="evenodd" d="M16.7071 32.6267C16.707 32.6265 16.7068 32.6263 15.9997 33.3334C15.2925 34.0405 15.2923 34.0403 15.2921 34.04L15.2897 34.0377L15.2848 34.0327L15.2685 34.0162C15.2549 34.0023 15.2359 33.9828 15.2117 33.9576C15.1634 33.9073 15.0946 33.8346 15.0084 33.7406C14.8359 33.5527 14.593 33.2794 14.3033 32.9293C13.7246 32.2301 12.955 31.2199 12.185 29.9686C10.6538 27.4803 9.07373 23.9619 9.07373 20.0001C9.07373 16.0382 10.6538 12.5198 12.185 10.0315C12.955 8.7803 13.7246 7.77013 14.3033 7.07086C14.593 6.72079 14.8359 6.44747 15.0084 6.25958C15.0946 6.16561 15.1634 6.09291 15.2117 6.04258C15.2359 6.01742 15.2549 5.99783 15.2685 5.98397L15.2848 5.96747L15.2897 5.96247L15.2914 5.96079C15.2917 5.96053 15.2925 5.95965 15.9997 6.66676C16.7068 7.37386 16.707 7.37367 16.7071 7.3735L16.7059 7.37469L16.6968 7.384L16.6545 7.42765C16.616 7.46774 16.5574 7.52959 16.4817 7.61213C16.3301 7.77725 16.11 8.02476 15.8441 8.34599C15.3117 8.98931 14.5998 9.92359 13.8884 11.0797C12.4567 13.4063 11.0737 16.5545 11.0737 20.0001C11.0737 23.4456 12.4567 26.5939 13.8884 28.9204C14.5998 30.0766 15.3117 31.0109 15.8441 31.6542C16.11 31.9754 16.3301 32.2229 16.4817 32.3881C16.5574 32.4706 16.616 32.5324 16.6545 32.5725L16.6968 32.6162L16.7059 32.6255L16.7071 32.6267Z" fill="#111111"/>
<circle cx="26" cy="9" r="6.5" fill="white" stroke="#111111"/>
<path d="M25.3665 11.4844V5.58665H26.7045V11.4844H25.3665ZM23.0866 9.20455V7.86648H28.9844V9.20455H23.0866Z" fill="#111111"/>
</svg>
