<svg width="24" height="24" viewBox="0 0 24 24" fill="none" xmlns="http://www.w3.org/2000/svg">
<path fill-rule="evenodd" clip-rule="evenodd" d="M2.84467 2.84467C4.17914 1.5102 6.17603 1 8.75 1H14.75C17.324 1 19.3209 1.5102 20.6553 2.84467C21.9898 4.17914 22.5 6.17603 22.5 8.75V14.75C22.5 17.324 21.9898 19.3209 20.6553 20.6553C19.3209 21.9898 17.324 22.5 14.75 22.5H8.75C6.17603 22.5 4.17914 21.9898 2.84467 20.6553C1.5102 19.3209 1 17.324 1 14.75V8.75C1 6.17603 1.5102 4.17914 2.84467 2.84467ZM3.90533 3.90533C2.9898 4.82086 2.5 6.32397 2.5 8.75V14.75C2.5 17.176 2.9898 18.6791 3.90533 19.5947C4.82086 20.5102 6.32397 21 8.75 21H14.75C17.176 21 18.6791 20.5102 19.5947 19.5947C20.5102 18.6791 21 17.176 21 14.75V8.75C21 6.32397 20.5102 4.82086 19.5947 3.90533C18.6791 2.9898 17.176 2.5 14.75 2.5H8.75C6.32397 2.5 4.82086 2.9898 3.90533 3.90533Z" fill="#111111"/>
<path d="M19.1499 7.87228C18.8499 6.9491 17.8572 6.39 16.9435 6.26182C13.6573 5.91273 10.3434 5.91273 7.05715 6.26182C6.14352 6.39 5.14806 6.94364 4.85079 7.87228C4.38307 10.2555 4.38307 12.7068 4.85079 15.09C5.15079 16.0118 6.14352 16.5723 7.05715 16.7005C10.3434 17.0496 13.6573 17.0496 16.9435 16.7005C17.8572 16.5723 18.8526 16.0187 19.1499 15.09C19.6176 12.7068 19.6176 10.2555 19.1499 7.87228ZM10.2058 14.355V8.60592L14.8858 11.4805C13.3081 12.45 11.7767 13.3896 10.2058 14.355Z" fill="#111111"/>
</svg>
