<svg width="24" height="24" viewBox="0 0 24 24" fill="none" xmlns="http://www.w3.org/2000/svg">
<path fill-rule="evenodd" clip-rule="evenodd" d="M2.84467 2.84467C4.17914 1.5102 6.17603 1 8.75 1H14.75C17.324 1 19.3209 1.5102 20.6553 2.84467C21.9898 4.17914 22.5 6.17603 22.5 8.75V14.75C22.5 17.324 21.9898 19.3209 20.6553 20.6553C19.3209 21.9898 17.324 22.5 14.75 22.5H8.75C6.17603 22.5 4.17914 21.9898 2.84467 20.6553C1.5102 19.3209 1 17.324 1 14.75V8.75C1 6.17603 1.5102 4.17914 2.84467 2.84467ZM3.90533 3.90533C2.9898 4.82086 2.5 6.32397 2.5 8.75V14.75C2.5 17.176 2.9898 18.6791 3.90533 19.5947C4.82086 20.5102 6.32397 21 8.75 21H14.75C17.176 21 18.6791 20.5102 19.5947 19.5947C20.5102 18.6791 21 17.176 21 14.75V8.75C21 6.32397 20.5102 4.82086 19.5947 3.90533C18.6791 2.9898 17.176 2.5 14.75 2.5H8.75C6.32397 2.5 4.82086 2.9898 3.90533 3.90533Z" fill="#111111"/>
<path d="M4.75013 8.48256C5.34051 8.11688 6.98967 7.11315 7.52424 6.79758C7.59912 6.84616 7.69588 6.90882 7.80882 6.98174C8.08398 7.15936 8.45587 7.39823 8.84191 7.64259C9.2272 7.88648 9.62993 8.13797 9.96572 8.34C10.2544 8.51371 10.5645 8.69507 10.7545 8.77356C11.1542 8.95395 11.5885 9.04458 12.0269 9.03904C12.5333 9.04758 13.0333 8.92488 13.4783 8.6828C13.7291 8.54949 14.5448 8.04306 15.2593 7.59736C15.431 7.49027 15.599 7.38536 15.7562 7.28712C15.9389 7.17301 16.1071 7.0679 16.2502 6.9788C16.3519 6.91545 16.4392 6.86123 16.5083 6.81858H16.5108L16.5353 6.80368C16.8114 6.96534 17.3996 7.32091 17.9849 7.67701C18.3301 7.88701 18.6671 8.09277 18.9243 8.25024C19.0529 8.32899 19.1614 8.39553 19.2409 8.44442L19.312 8.4882V13.7747C19.0676 13.9217 18.2403 14.4377 17.2336 15.0657C16.8065 15.3321 16.3471 15.6186 15.8862 15.9057C14.2088 16.9505 12.4919 18.0148 12.0258 18.2793C11.5235 17.9817 9.82941 16.9288 8.18355 15.9049C8.07964 15.8403 7.976 15.7758 7.87295 15.7117C7.12868 15.2487 6.41531 14.8049 5.85541 14.4579C5.5368 14.2604 5.26681 14.0936 5.06863 13.9722C4.94624 13.8972 4.83093 13.8268 4.75013 13.7797V8.48256Z" stroke="#111111" stroke-width="1.5"/>
<path fill-rule="evenodd" clip-rule="evenodd" d="M8.04962 10H8.7426V13.3354H9.93785V13.9934H8.05271L8.04962 10Z" fill="#111111"/>
<path fill-rule="evenodd" clip-rule="evenodd" d="M11.5454 11.0003C11.7266 10.998 11.9058 11.0377 12.0691 11.1162C12.2324 11.1947 12.3753 11.3098 12.4867 11.4527V11.06H13.1308V13.9995H12.4841V13.6062C12.3731 13.7488 12.2306 13.8639 12.0677 13.9424C11.9049 14.0208 11.7261 14.0606 11.5454 14.0586C10.7393 14.0586 10.1276 13.3697 10.1276 12.5287C10.1276 11.6877 10.7368 11.0003 11.5454 11.0003ZM11.6631 11.589C11.1398 11.589 10.7928 12.0002 10.7928 12.5287C10.7928 13.0572 11.1429 13.47 11.6606 13.47C12.1782 13.47 12.5304 13.0587 12.5304 12.5287C12.5304 11.9987 12.1839 11.589 11.6606 11.589H11.6631Z" fill="#111111"/>
<path fill-rule="evenodd" clip-rule="evenodd" d="M13.6341 13.4891L15.1758 11.6471H13.6572V11.0601H16.0112V11.5777L14.4751 13.412H16.0457V13.9996H13.6341V13.4891Z" fill="#111111"/>
</svg>
