<svg width="24" height="24" viewBox="0 0 24 24" fill="none" xmlns="http://www.w3.org/2000/svg">
<path fill-rule="evenodd" clip-rule="evenodd" d="M2.84467 2.84467C4.17914 1.5102 6.17603 1 8.75 1H14.75C17.324 1 19.3209 1.5102 20.6553 2.84467C21.9898 4.17914 22.5 6.17603 22.5 8.75V14.75C22.5 17.324 21.9898 19.3209 20.6553 20.6553C19.3209 21.9898 17.324 22.5 14.75 22.5H8.75C6.17603 22.5 4.17914 21.9898 2.84467 20.6553C1.5102 19.3209 1 17.324 1 14.75V8.75C1 6.17603 1.5102 4.17914 2.84467 2.84467ZM3.90533 3.90533C2.9898 4.82086 2.5 6.32397 2.5 8.75V14.75C2.5 17.176 2.9898 18.6791 3.90533 19.5947C4.82086 20.5102 6.32397 21 8.75 21H14.75C17.176 21 18.6791 20.5102 19.5947 19.5947C20.5102 18.6791 21 17.176 21 14.75V8.75C21 6.32397 20.5102 4.82086 19.5947 3.90533C18.6791 2.9898 17.176 2.5 14.75 2.5H8.75C6.32397 2.5 4.82086 2.9898 3.90533 3.90533Z" fill="#111111"/>
<path d="M5.28255 13.0736C5.56683 13.2285 5.88942 13.3099 6.21772 13.3095C6.54695 13.3095 6.84701 13.1656 6.84701 12.877C6.84701 12.6608 6.67614 12.5279 6.31191 12.3447C5.89516 12.134 5.49426 11.84 5.49426 11.3572C5.49426 10.5969 6.18772 10.1416 7.05288 10.1416C7.53463 10.1416 7.81719 10.2415 7.98805 10.3248L7.723 10.9908C7.4954 10.8817 7.24313 10.8264 6.98787 10.8296C6.58779 10.8296 6.38192 11.0128 6.38192 11.218C6.38192 11.435 6.6228 11.5734 6.95869 11.7511C7.44045 11.987 7.74634 12.2889 7.74634 12.7387C7.74634 13.5705 7.01704 13.9967 6.13521 13.9967C5.58344 13.9943 5.18837 13.8615 5 13.7341L5.28255 13.0736Z" fill="#111111"/>
<path d="M10.1676 13.7836C9.83065 13.9308 9.46291 14.0047 9.09159 13.9998C8.27394 13.9998 7.85052 13.5618 7.85052 12.8518C7.85052 12.0247 8.48564 11.1653 9.52667 11.1653C10.1101 11.1653 10.5269 11.4759 10.5269 11.9806C10.5269 12.6686 9.81505 12.9187 8.65651 12.8904C8.66321 12.9888 8.69556 13.0841 8.75069 13.1679C8.86405 13.3063 9.05825 13.381 9.30496 13.381C9.58409 13.3829 9.85993 13.324 10.1109 13.2088L10.1676 13.7836ZM9.41748 11.7479C9.02324 11.7479 8.79403 12.0585 8.73569 12.3077C9.40248 12.3132 9.7292 12.2291 9.7292 11.9751C9.73421 11.8423 9.61668 11.7479 9.42248 11.7479H9.41748Z" fill="#111111"/>
<path d="M10.3518 13.9391L10.716 12.1078C10.7927 11.7642 10.8511 11.4088 10.8919 11.1643H11.642L11.5729 11.6746H11.5845C11.8546 11.3247 12.208 11.1643 12.5897 11.1643C13.0606 11.1643 13.3307 11.4364 13.3307 11.9073C13.3262 12.0599 13.3106 12.212 13.284 12.3626L12.9665 13.9351H12.1105L12.418 12.4373C12.4367 12.3384 12.4464 12.2382 12.4472 12.1377C12.4472 11.9435 12.3763 11.8098 12.1588 11.8098C11.8821 11.8098 11.5587 12.1377 11.4412 12.7369L11.1986 13.9391H10.3518Z" fill="#111111"/>
<path d="M16.6914 10L16.1079 12.8848C16.0354 13.2327 15.99 13.5851 15.9721 13.9392H15.1961L15.2369 13.5005H15.2253C15.1263 13.6535 14.9872 13.7799 14.8213 13.8673C14.6554 13.9548 14.4684 14.0004 14.2784 13.9998C13.7908 13.9998 13.3907 13.6342 13.3907 12.9776C13.3907 12.0341 14.1142 11.1637 15.2019 11.1637C15.3363 11.1647 15.4696 11.187 15.5962 11.2297L15.8462 10.0039L16.6914 10ZM15.4803 11.8643C15.3828 11.7997 15.2659 11.7667 15.1469 11.7699C14.6351 11.7699 14.2759 12.325 14.2759 12.8463C14.2759 13.1734 14.4293 13.3566 14.6701 13.3566C14.911 13.3566 15.2169 13.1121 15.3286 12.5908L15.4803 11.8643Z" fill="#111111"/>
<path d="M19.291 12.2804C19.291 13.2734 18.5675 13.9999 17.574 13.9999C16.8447 13.9999 16.3563 13.551 16.3563 12.874C16.3563 11.9367 17.0506 11.1599 18.0741 11.1599C18.8442 11.1599 19.291 11.6592 19.291 12.2804ZM17.2323 12.863C17.2323 13.1775 17.399 13.3898 17.6973 13.3898C18.1499 13.3898 18.415 12.7466 18.415 12.289C18.415 12.0398 18.2975 11.7732 17.9616 11.7732C17.474 11.7701 17.2323 12.4415 17.2323 12.863V12.863Z" fill="#111111"/>
</svg>
