<svg width="24" height="24" viewBox="0 0 24 24" fill="none" xmlns="http://www.w3.org/2000/svg">
<path d="M15.6064 11.0791L15.3651 13.1695C15.355 13.2649 15.3103 13.3533 15.2394 13.4179C15.1686 13.4825 15.0764 13.5189 14.9805 13.52H12.7987L12.7878 19.7177C12.7885 19.7912 12.7603 19.862 12.7093 19.9148C12.6582 19.9676 12.5885 19.9982 12.515 20H10.3046C10.2678 20 10.2315 19.9926 10.1976 19.9782C10.1638 19.9639 10.1333 19.9428 10.1078 19.9163C10.0823 19.8898 10.0624 19.8584 10.0494 19.8241C10.0364 19.7897 10.0304 19.7531 10.0319 19.7164V13.52H8.39549C8.3441 13.5195 8.29331 13.5088 8.24603 13.4887C8.19876 13.4685 8.15591 13.4392 8.11995 13.4025C8.08399 13.3658 8.05561 13.3223 8.03644 13.2746C8.01727 13.2269 8.00768 13.1759 8.00822 13.1245L8.00004 11.0341C7.99932 10.9825 8.00876 10.9313 8.02784 10.8834C8.04691 10.8355 8.07524 10.7918 8.1112 10.7548C8.14716 10.7178 8.19005 10.6883 8.23743 10.6679C8.28481 10.6475 8.33574 10.6366 8.38731 10.6359H10.0319V8.61773C10.0319 6.275 11.4228 5 13.4628 5H15.1346C15.1863 5.00053 15.2374 5.01127 15.2849 5.03158C15.3324 5.0519 15.3755 5.0814 15.4116 5.1184C15.4477 5.15539 15.4761 5.19915 15.4953 5.24716C15.5145 5.29517 15.524 5.34649 15.5232 5.39818V7.15727C15.524 7.20896 15.5145 7.26028 15.4953 7.3083C15.4761 7.35631 15.4477 7.40007 15.4116 7.43706C15.3755 7.47405 15.3324 7.50355 15.2849 7.52387C15.2374 7.54419 15.1863 7.55492 15.1346 7.55545H14.1091C13.0005 7.55545 12.785 8.10091 12.785 8.88909V10.6359H15.2219C15.2773 10.6366 15.3319 10.649 15.3822 10.6723C15.4325 10.6957 15.4773 10.7294 15.5136 10.7712C15.5499 10.8131 15.577 10.8622 15.593 10.9152C15.609 10.9683 15.6135 11.0241 15.6064 11.0791Z" fill="#111111"/>
<path fill-rule="evenodd" clip-rule="evenodd" d="M4.15533 4.15533C3.2398 5.07086 2.75 6.57397 2.75 9V15C2.75 17.426 3.2398 18.9291 4.15533 19.8447C5.07086 20.7602 6.57397 21.25 9 21.25H15C17.426 21.25 18.9291 20.7602 19.8447 19.8447C20.7602 18.9291 21.25 17.426 21.25 15V9C21.25 6.57397 20.7602 5.07086 19.8447 4.15533C18.9291 3.2398 17.426 2.75 15 2.75H9C6.57397 2.75 5.07086 3.2398 4.15533 4.15533ZM3.09467 3.09467C4.42914 1.7602 6.42603 1.25 9 1.25H15C17.574 1.25 19.5709 1.7602 20.9053 3.09467C22.2398 4.42914 22.75 6.42603 22.75 9V15C22.75 17.574 22.2398 19.5709 20.9053 20.9053C19.5709 22.2398 17.574 22.75 15 22.75H9C6.42603 22.75 4.42914 22.2398 3.09467 20.9053C1.7602 19.5709 1.25 17.574 1.25 15V9C1.25 6.42603 1.7602 4.42914 3.09467 3.09467Z" fill="#111111"/>
</svg>
