<svg width="24" height="24" viewBox="0 0 24 24" fill="none" xmlns="http://www.w3.org/2000/svg">
<path fill-rule="evenodd" clip-rule="evenodd" d="M2.84467 2.84467C4.17914 1.5102 6.17603 1 8.75 1H14.75C17.324 1 19.3209 1.5102 20.6553 2.84467C21.9898 4.17914 22.5 6.17603 22.5 8.75V14.75C22.5 17.324 21.9898 19.3209 20.6553 20.6553C19.3209 21.9898 17.324 22.5 14.75 22.5H8.75C6.17603 22.5 4.17914 21.9898 2.84467 20.6553C1.5102 19.3209 1 17.324 1 14.75V8.75C1 6.17603 1.5102 4.17914 2.84467 2.84467ZM3.90533 3.90533C2.9898 4.82086 2.5 6.32397 2.5 8.75V14.75C2.5 17.176 2.9898 18.6791 3.90533 19.5947C4.82086 20.5102 6.32397 21 8.75 21H14.75C17.176 21 18.6791 20.5102 19.5947 19.5947C20.5102 18.6791 21 17.176 21 14.75V8.75C21 6.32397 20.5102 4.82086 19.5947 3.90533C18.6791 2.9898 17.176 2.5 14.75 2.5H8.75C6.32397 2.5 4.82086 2.9898 3.90533 3.90533Z" fill="#111111"/>
<path d="M8.6972 10.6092C8.69729 10.701 8.6803 10.7919 8.64721 10.8767C8.61411 10.9615 8.56557 11.0386 8.50434 11.1035C8.44312 11.1684 8.37042 11.2198 8.29042 11.2549C8.21041 11.29 8.12466 11.308 8.03807 11.3079H7.03024V16.3004C7.03306 16.3941 7.01809 16.4874 6.98622 16.5749C6.95434 16.6623 6.90622 16.742 6.84471 16.8094C6.78319 16.8767 6.70954 16.9302 6.62812 16.9668C6.54671 17.0034 6.45919 17.0222 6.37077 17.0222C6.28235 17.0222 6.19484 17.0034 6.11342 16.9668C6.03201 16.9302 5.95836 16.8767 5.89684 16.8094C5.83532 16.742 5.7872 16.6623 5.75533 16.5749C5.72346 16.4874 5.70849 16.3941 5.71131 16.3004V11.3079H4.65913C4.48432 11.3079 4.31666 11.2343 4.19305 11.1033C4.06944 10.9722 4 10.7945 4 10.6092C4 10.4238 4.06944 10.2461 4.19305 10.1151C4.31666 9.98402 4.48432 9.9104 4.65913 9.9104H8.03807C8.21289 9.9104 8.38054 9.98402 8.50415 10.1151C8.62776 10.2461 8.6972 10.4238 8.6972 10.6092Z" fill="#111111"/>
<path d="M10.2936 10.6336C10.2936 10.2339 9.988 9.90991 9.61099 9.90991C9.23397 9.90991 8.92834 10.2339 8.92834 10.6336V16.2764C8.92834 16.6761 9.23397 17.0001 9.61099 17.0001C9.988 17.0001 10.2936 16.6761 10.2936 16.2764V10.6336Z" fill="#111111"/>
<path d="M16.1324 16.7891L16.0941 16.8268C16.0392 16.8834 15.9744 16.928 15.9033 16.9579C15.8322 16.9879 15.7562 17.0028 15.6797 17.0016C15.6032 17.0004 15.5276 16.9832 15.4574 16.951C15.3871 16.9188 15.3236 16.8723 15.2703 16.814L12.8421 14.1607L12.4658 13.7483V16.2776C12.4658 16.4696 12.3939 16.6536 12.2659 16.7894C12.1379 16.9251 11.9642 17.0013 11.7832 17.0013C11.6021 17.0013 11.4285 16.9251 11.3005 16.7894C11.1725 16.6536 11.1006 16.4696 11.1006 16.2776V10.6334C11.1006 10.5381 11.1183 10.4438 11.1528 10.3559C11.1873 10.2679 11.2378 10.1881 11.3015 10.1209C11.3652 10.0537 11.4407 10.0005 11.5239 9.96442C11.607 9.92829 11.696 9.90994 11.7859 9.91041C11.9664 9.91097 12.1394 9.9874 12.2668 10.1229C12.3943 10.2584 12.4658 10.442 12.4658 10.6334V12.6243L14.8107 10.1376C14.9439 9.99662 15.1244 9.91741 15.3126 9.91741C15.5009 9.91741 15.6814 9.99662 15.8146 10.1376C15.8689 10.1948 15.912 10.2629 15.9414 10.3378C15.9708 10.4127 15.986 10.4931 15.986 10.5743C15.986 10.6554 15.9708 10.7358 15.9414 10.8107C15.912 10.8857 15.8689 10.9537 15.8146 11.0109L13.7599 13.1941L16.1471 15.8011C16.2684 15.9344 16.3349 16.1132 16.3322 16.2983C16.3294 16.4835 16.2576 16.6599 16.1324 16.7891Z" fill="#111111"/>
<path d="M9.61097 6C9.28832 6 8.97291 6.10143 8.70464 6.29147C8.43636 6.4815 8.22727 6.75161 8.10379 7.06762C7.98032 7.38364 7.94801 7.73138 8.01096 8.06686C8.07391 8.40234 8.22928 8.7105 8.45743 8.95237C8.68558 9.19424 8.97626 9.35895 9.29271 9.42568C9.60916 9.49241 9.93717 9.45817 10.2353 9.32727C10.5334 9.19637 10.7881 8.9747 10.9674 8.69029C11.1466 8.40588 11.2423 8.07151 11.2423 7.72946C11.2421 7.27083 11.0702 6.83105 10.7643 6.50675C10.4584 6.18246 10.0436 6.00019 9.61097 6V6ZM9.61097 9.06288C9.27739 9.06288 8.95746 8.92239 8.72158 8.67233C8.4857 8.42226 8.35319 8.0831 8.35319 7.72946C8.35285 7.62682 8.3639 7.5245 8.38611 7.42459H10.8358C10.8586 7.52464 10.8699 7.62725 10.8694 7.73017C10.8691 8.08376 10.7363 8.42273 10.5004 8.67262C10.2644 8.92251 9.9445 9.06288 9.61097 9.06288Z" fill="#111111"/>
<path d="M18.052 10.6336C18.052 10.2339 17.7463 9.90991 17.3693 9.90991C16.9923 9.90991 16.6867 10.2339 16.6867 10.6336V16.2764C16.6867 16.6761 16.9923 17.0001 17.3693 17.0001C17.7463 17.0001 18.052 16.6761 18.052 16.2764V10.6336Z" fill="#111111"/>
<path d="M17.3707 6C17.048 6 16.7326 6.10143 16.4643 6.29147C16.1961 6.4815 15.987 6.75161 15.8635 7.06762C15.74 7.38364 15.7077 7.73138 15.7707 8.06686C15.8336 8.40234 15.989 8.7105 16.2171 8.95237C16.4453 9.19424 16.7359 9.35895 17.0524 9.42568C17.3688 9.49241 17.6969 9.45817 17.9949 9.32727C18.293 9.19637 18.5478 8.9747 18.7271 8.69029C18.9063 8.40588 19.002 8.07151 19.002 7.72946C19.0018 7.27083 18.8299 6.83105 18.524 6.50675C18.2181 6.18246 17.8033 6.00019 17.3707 6V6ZM17.3707 9.06288C17.0371 9.06288 16.7172 8.92239 16.4813 8.67233C16.2454 8.42226 16.1129 8.0831 16.1129 7.72946C16.1128 7.6266 16.1239 7.52408 16.1458 7.42388H18.5935C18.6169 7.52383 18.6284 7.62648 18.6278 7.72946C18.6274 8.08286 18.4949 8.4217 18.2592 8.67166C18.0236 8.92162 17.704 9.06231 17.3707 9.06288Z" fill="#111111"/>
</svg>
