<svg width="24" height="24" viewBox="0 0 24 24" fill="none" xmlns="http://www.w3.org/2000/svg">
<path fill-rule="evenodd" clip-rule="evenodd" d="M2.84467 2.84467C4.17914 1.5102 6.17603 1 8.75 1H14.75C17.324 1 19.3209 1.5102 20.6553 2.84467C21.9898 4.17914 22.5 6.17603 22.5 8.75V14.75C22.5 17.324 21.9898 19.3209 20.6553 20.6553C19.3209 21.9898 17.324 22.5 14.75 22.5H8.75C6.17603 22.5 4.17914 21.9898 2.84467 20.6553C1.5102 19.3209 1 17.324 1 14.75V8.75C1 6.17603 1.5102 4.17914 2.84467 2.84467ZM3.90533 3.90533C2.9898 4.82086 2.5 6.32397 2.5 8.75V14.75C2.5 17.176 2.9898 18.6791 3.90533 19.5947C4.82086 20.5102 6.32397 21 8.75 21H14.75C17.176 21 18.6791 20.5102 19.5947 19.5947C20.5102 18.6791 21 17.176 21 14.75V8.75C21 6.32397 20.5102 4.82086 19.5947 3.90533C18.6791 2.9898 17.176 2.5 14.75 2.5H8.75C6.32397 2.5 4.82086 2.9898 3.90533 3.90533Z" fill="#111111"/>
<path d="M9.04927 7.49996C9.04927 7.79662 8.95985 8.08663 8.79232 8.33329C8.62479 8.57996 8.38668 8.77221 8.10809 8.88574C7.8295 8.99927 7.52294 9.02897 7.22719 8.9711C6.93144 8.91322 6.65978 8.77036 6.44656 8.56059C6.23333 8.35082 6.08812 8.08355 6.0293 7.79259C5.97047 7.50162 6.00066 7.20003 6.11606 6.92595C6.23145 6.65187 6.42687 6.41761 6.67759 6.25279C6.92832 6.08797 7.22309 6 7.52463 6C7.92899 6 8.31679 6.15803 8.60271 6.43933C8.88864 6.72063 9.04927 7.10215 9.04927 7.49996Z" fill="#111111"/>
<path d="M8.70378 9.99919V16.626C8.70405 16.6749 8.69449 16.7233 8.67566 16.7686C8.65683 16.8138 8.6291 16.855 8.59405 16.8896C8.55901 16.9243 8.51735 16.9518 8.47146 16.9706C8.42558 16.9893 8.37638 16.999 8.32669 16.999H6.71972C6.67003 16.9991 6.6208 16.9896 6.57487 16.9709C6.52893 16.9523 6.4872 16.9249 6.45206 16.8903C6.41692 16.8558 6.38908 16.8147 6.37012 16.7695C6.35117 16.7243 6.34148 16.6759 6.34162 16.627V9.99919C6.34162 9.90053 6.38145 9.80591 6.45236 9.73615C6.52327 9.66639 6.61944 9.6272 6.71972 9.6272H8.32669C8.42679 9.62746 8.5227 9.66677 8.59339 9.7365C8.66408 9.80624 8.70378 9.9007 8.70378 9.99919Z" fill="#111111"/>
<path d="M17.1035 13.4485V16.6564C17.1037 16.7014 17.0948 16.7459 17.0773 16.7874C17.0599 16.829 17.0343 16.8667 17.002 16.8985C16.9697 16.9303 16.9313 16.9555 16.8891 16.9726C16.8469 16.9898 16.8016 16.9985 16.7559 16.9984H15.028C14.9823 16.9985 14.937 16.9898 14.8948 16.9726C14.8526 16.9555 14.8142 16.9303 14.7819 16.8985C14.7496 16.8667 14.724 16.829 14.7066 16.7874C14.6891 16.7459 14.6802 16.7014 14.6804 16.6564V13.5475C14.6804 13.0835 14.8186 11.5155 13.4475 11.5155C12.3853 11.5155 12.1688 12.5885 12.1261 13.0705V16.6564C12.1261 16.7463 12.0902 16.8325 12.0261 16.8965C11.962 16.9605 11.8749 16.9971 11.7836 16.9984H10.1146C10.069 16.9984 10.0239 16.9895 9.98173 16.9723C9.93962 16.9551 9.90136 16.9299 9.86916 16.8982C9.83697 16.8664 9.81146 16.8287 9.7941 16.7872C9.77674 16.7457 9.76787 16.7013 9.76801 16.6564V9.96959C9.76787 9.92473 9.77674 9.88028 9.7941 9.83879C9.81146 9.7973 9.83697 9.7596 9.86916 9.72783C9.90136 9.69606 9.93962 9.67085 9.98173 9.65365C10.0239 9.63645 10.069 9.6276 10.1146 9.6276H11.7836C11.8758 9.6276 11.9642 9.66363 12.0294 9.72777C12.0946 9.7919 12.1312 9.87889 12.1312 9.96959V10.5476C12.5256 9.96559 13.11 9.5166 14.3572 9.5166C17.1198 9.5166 17.1035 12.0545 17.1035 13.4485Z" fill="#111111"/>
</svg>
