<svg width="24" height="24" viewBox="0 0 24 24" fill="none" xmlns="http://www.w3.org/2000/svg">
<path fill-rule="evenodd" clip-rule="evenodd" d="M2.84467 2.84467C4.17914 1.5102 6.17603 1 8.75 1H14.75C17.324 1 19.3209 1.5102 20.6553 2.84467C21.9898 4.17914 22.5 6.17603 22.5 8.75V14.75C22.5 17.324 21.9898 19.3209 20.6553 20.6553C19.3209 21.9898 17.324 22.5 14.75 22.5H8.75C6.17603 22.5 4.17914 21.9898 2.84467 20.6553C1.5102 19.3209 1 17.324 1 14.75V8.75C1 6.17603 1.5102 4.17914 2.84467 2.84467ZM3.90533 3.90533C2.9898 4.82086 2.5 6.32397 2.5 8.75V14.75C2.5 17.176 2.9898 18.6791 3.90533 19.5947C4.82086 20.5102 6.32397 21 8.75 21H14.75C17.176 21 18.6791 20.5102 19.5947 19.5947C20.5102 18.6791 21 17.176 21 14.75V8.75C21 6.32397 20.5102 4.82086 19.5947 3.90533C18.6791 2.9898 17.176 2.5 14.75 2.5H8.75C6.32397 2.5 4.82086 2.9898 3.90533 3.90533Z" fill="#111111"/>
<path fill-rule="evenodd" clip-rule="evenodd" d="M9.31864 8.90706H6.58852C6.26584 8.90706 5.97941 9.18533 6.00116 9.52001L6.55226 17.4394C6.61027 18.2968 7.12512 19 8.09679 19H15.9064C16.7802 19 17.3821 18.4322 17.451 17.4394L17.9985 9.51625C18.0238 9.18157 17.7338 8.90706 17.4111 8.90706H14.6846C14.6012 7.94816 14.3438 7.08327 13.974 6.42143C13.4809 5.54526 12.7884 5 12.0016 5C11.2149 5 10.5187 5.5415 10.0293 6.42143C9.65945 7.08703 9.40203 7.94816 9.31864 8.90706ZM13.9957 8.90706H10.0003C10.0836 8.07977 10.3012 7.33897 10.6166 6.77867C10.9864 6.11684 11.4759 5.70696 12.0016 5.70696C12.5237 5.70696 13.0168 6.11684 13.3794 6.77491C13.6948 7.33897 13.916 8.07601 13.9957 8.90706ZM9.94595 15.8226C9.85893 15.9542 9.89156 16.1309 10.0185 16.2212C10.1164 16.2926 10.2106 16.3528 10.3013 16.4054C11.0264 16.8642 11.7153 17.0898 12.3062 17.0898C12.9371 17.0861 13.4556 16.8304 13.7928 16.3152C13.7948 16.3117 13.7969 16.3079 13.7992 16.3039C13.8093 16.2863 13.8222 16.2638 13.8399 16.2362C13.9342 16.0783 14.0031 15.9166 14.0466 15.7549C14.1445 15.3939 14.1263 15.0254 13.9813 14.6756C13.8399 14.3372 13.5752 14.0251 13.18 13.7769C12.9407 13.6265 12.6507 13.4986 12.3099 13.3971C11.679 13.2128 11.2258 12.9759 11.0083 12.6713C10.8197 12.4081 10.8161 12.0622 11.0481 11.6222C11.1859 11.359 11.4977 11.1935 11.9074 11.1597C12.3353 11.1258 12.8501 11.2349 13.3903 11.5207C13.5281 11.5959 13.6912 11.5395 13.7638 11.3966C13.8363 11.2537 13.7819 11.0807 13.6441 11.0092C13.0096 10.6746 12.386 10.5467 11.8675 10.5881C11.2657 10.637 10.7907 10.9115 10.5587 11.3514C10.2106 12.017 10.236 12.5661 10.5623 13.0211C10.8596 13.4347 11.4107 13.7431 12.1576 13.9612C12.4513 14.0439 12.6942 14.1529 12.89 14.277C13.1837 14.4613 13.3722 14.6832 13.4701 14.9126C13.5607 15.1307 13.5716 15.3713 13.5063 15.6045C13.4737 15.7173 13.4266 15.8339 13.3613 15.9429C13.3595 15.9487 13.3547 15.9555 13.3486 15.9642C13.3428 15.9726 13.3358 15.9827 13.3287 15.9956C13.1003 16.3453 12.7413 16.5182 12.299 16.5182C11.8095 16.5182 11.2222 16.3189 10.5841 15.9166C10.4934 15.8602 10.41 15.8038 10.3303 15.7474C10.2034 15.6571 10.033 15.691 9.94595 15.8226Z" fill="#111111"/>
</svg>
