<svg width="24" height="24" viewBox="0 0 24 24" fill="none" xmlns="http://www.w3.org/2000/svg">
<path fill-rule="evenodd" clip-rule="evenodd" d="M2.84467 2.84467C4.17914 1.5102 6.17603 1 8.75 1H14.75C17.324 1 19.3209 1.5102 20.6553 2.84467C21.9898 4.17914 22.5 6.17603 22.5 8.75V14.75C22.5 17.324 21.9898 19.3209 20.6553 20.6553C19.3209 21.9898 17.324 22.5 14.75 22.5H8.75C6.17603 22.5 4.17914 21.9898 2.84467 20.6553C1.5102 19.3209 1 17.324 1 14.75V8.75C1 6.17603 1.5102 4.17914 2.84467 2.84467ZM3.90533 3.90533C2.9898 4.82086 2.5 6.32397 2.5 8.75V14.75C2.5 17.176 2.9898 18.6791 3.90533 19.5947C4.82086 20.5102 6.32397 21 8.75 21H14.75C17.176 21 18.6791 20.5102 19.5947 19.5947C20.5102 18.6791 21 17.176 21 14.75V8.75C21 6.32397 20.5102 4.82086 19.5947 3.90533C18.6791 2.9898 17.176 2.5 14.75 2.5H8.75C6.32397 2.5 4.82086 2.9898 3.90533 3.90533Z" fill="#111111"/>
<path d="M10.3815 14.6759C11.8828 14.6759 13.2946 14.6658 14.6965 14.6759C15.4819 14.6859 15.9094 15.017 15.9889 15.6491C16.0784 16.4416 15.6211 16.9734 14.766 16.9834C13.1554 17.0035 11.5547 16.9934 9.94408 16.9934C9.4768 16.9934 9.01946 17.0135 8.55217 16.9834C7.97553 16.9533 7.40882 16.8329 7.13044 16.231C6.85206 15.629 7.0509 15.0872 7.42871 14.5956C8.9598 12.6292 10.5008 10.6527 12.0419 8.68628C12.1314 8.56589 12.2208 8.4455 12.3103 8.33514C12.2109 8.16458 12.0717 8.24484 11.9524 8.23481C10.8786 8.22477 9.79495 8.23481 8.72119 8.22478C8.47264 8.22478 8.22408 8.19468 7.98547 8.14451C7.41876 8.01409 7.07079 7.44222 7.20004 6.88038C7.28952 6.49913 7.58778 6.18812 7.96558 6.09782C8.2042 6.03762 8.45275 6.00752 8.70131 6.00752C10.471 5.99749 12.2507 5.99749 14.0204 6.00752C14.3385 5.99749 14.6467 6.03762 14.9549 6.11789C15.631 6.34864 15.9193 6.98071 15.6509 7.64287C15.4123 8.21474 15.0345 8.70635 14.6567 9.19796C13.3543 10.8734 12.0518 12.5389 10.7494 14.1943C10.64 14.3247 10.5406 14.4551 10.3815 14.6759Z" fill="#111111"/>
</svg>
