<svg width="24" height="24" viewBox="0 0 24 24" fill="none" xmlns="http://www.w3.org/2000/svg">
<path fill-rule="evenodd" clip-rule="evenodd" d="M2.84467 2.84467C4.17914 1.5102 6.17603 1 8.75 1H14.75C17.324 1 19.3209 1.5102 20.6553 2.84467C21.9898 4.17914 22.5 6.17603 22.5 8.75V14.75C22.5 17.324 21.9898 19.3209 20.6553 20.6553C19.3209 21.9898 17.324 22.5 14.75 22.5H8.75C6.17603 22.5 4.17914 21.9898 2.84467 20.6553C1.5102 19.3209 1 17.324 1 14.75V8.75C1 6.17603 1.5102 4.17914 2.84467 2.84467ZM3.90533 3.90533C2.9898 4.82086 2.5 6.32397 2.5 8.75V14.75C2.5 17.176 2.9898 18.6791 3.90533 19.5947C4.82086 20.5102 6.32397 21 8.75 21H14.75C17.176 21 18.6791 20.5102 19.5947 19.5947C20.5102 18.6791 21 17.176 21 14.75V8.75C21 6.32397 20.5102 4.82086 19.5947 3.90533C18.6791 2.9898 17.176 2.5 14.75 2.5H8.75C6.32397 2.5 4.82086 2.9898 3.90533 3.90533Z" fill="#111111"/>
<path d="M10.626 18C9.66435 18 8.74205 17.5966 8.06204 16.8785C7.38203 16.1604 7 15.1864 7 14.1709C7 13.1554 7.38203 12.1814 8.06204 11.4633C8.74205 10.7452 9.66435 10.3418 10.626 10.3418H11.5114V12.2105H10.626C10.2583 12.2105 9.89874 12.3257 9.59295 12.5415C9.28715 12.7572 9.04882 13.0639 8.90808 13.4227C8.76733 13.7815 8.73051 14.1764 8.80226 14.5573C8.87401 14.9382 9.05111 15.2881 9.31117 15.5627C9.57122 15.8373 9.90255 16.0243 10.2633 16.1001C10.624 16.1759 10.9979 16.137 11.3376 15.9883C11.6774 15.8397 11.9678 15.588 12.1722 15.2651C12.3765 14.9422 12.4855 14.5626 12.4855 14.1742V6H14.2552V6.93382C14.2552 7.45461 14.4511 7.95407 14.7998 8.32232C15.1485 8.69057 15.6215 8.89745 16.1147 8.89745H17V10.7629H16.1085C15.4531 10.7639 14.81 10.5753 14.249 10.2175V14.1709C14.2481 15.1856 13.8663 16.1586 13.1871 16.8764C12.508 17.5942 11.5869 17.9983 10.626 18Z" fill="#111111"/>
</svg>
