<svg width="16" height="16" viewBox="0 0 16 16" fill="none" xmlns="http://www.w3.org/2000/svg">
  <g clip-path="url(#clip0_18420_208036)">
    <path d="M15.1998 8.00008C15.1998 11.9766 11.9763 15.2001 7.9998 15.2001C4.0233 15.2001 0.799805 11.9766 0.799805 8.00008C0.799805 4.02358 4.0233 0.800079 7.9998 0.800079C11.9763 0.800079 15.1998 4.02358 15.1998 8.00008Z" fill="#33B44A"/>
    <path d="M7.55554 11.8668C7.32886 11.8668 7.10095 11.7953 6.90891 11.6492L3.47938 9.04132C3.01603 8.68906 2.9301 8.03312 3.28756 7.57635C3.64489 7.11968 4.31029 7.03498 4.77364 7.38725L7.42699 9.40508L11.0879 5.411C11.4802 4.98301 12.1501 4.94952 12.5844 5.33636C13.0185 5.72299 13.0525 6.38353 12.6601 6.81152L8.34215 11.5225C8.1339 11.7497 7.84572 11.8668 7.55554 11.8668Z" fill="white"/>
  </g>
  <defs>
    <clipPath id="clip0_18420_208036">
      <rect width="16" height="16" fill="white"/>
    </clipPath>
  </defs>
</svg>
